<svg xmlns="http://www.w3.org/2000/svg" width="800" height="800" viewBox="0 0 800 800" version="1.1">

<path d="M 187.507 225.615 C 184.211 226.412, 177.911 228.825, 173.507 230.976 C 151.725 241.620, 137.363 262.570, 135.326 286.675 C 134.795 292.959, 134.453 293.995, 133.099 293.425 C 127.056 290.880, 116.616 289, 108.528 289 C 91.085 289, 77.309 294.659, 64.979 306.891 C 56.037 315.763, 51.039 324.143, 47.942 335.458 C 44.961 346.351, 45.520 362.271, 49.234 372.242 C 56.932 392.906, 73.084 407.735, 93.571 412.945 L 97.642 413.981 94.436 420.740 C 89.261 431.652, 87.636 440.189, 88.247 453.265 C 88.877 466.741, 92.211 477.036, 99.491 487.987 C 114.510 510.578, 144.705 522.637, 170.832 516.478 C 183.850 513.409, 200.038 503.791, 207.018 494.977 L 210.120 491.061 214.310 495.824 C 223.544 506.322, 236.005 514.144, 249 517.602 C 258.578 520.151, 275.374 519.866, 284.500 517.001 C 297.024 513.068, 304.751 508.368, 314.144 498.969 C 321.132 491.977, 323.579 488.685, 326.921 481.782 C 331.836 471.627, 333.959 462.463, 333.983 451.299 C 334.004 441.276, 332.701 434.725, 328.806 425.266 L 325.827 418.032 321.392 423.931 C 318.953 427.176, 314.959 432.054, 312.515 434.772 C 309.473 438.155, 307.745 441.177, 307.032 444.357 C 304.497 455.670, 299.696 464.297, 291.690 471.927 C 285.698 477.639, 281.645 480.238, 273.987 483.284 C 255.101 490.795, 232.097 485.845, 217.629 471.157 L 211.757 465.197 206.256 470.611 C 202.772 474.040, 197.776 477.494, 192.628 480.032 C 160.482 495.883, 123.535 476.863, 116.809 441 C 114.926 430.960, 117.717 414.660, 122.594 407.217 C 123.455 405.902, 124.011 404.734, 123.830 404.621 C 123.648 404.508, 121.260 403.846, 118.522 403.150 C 103.923 399.441, 90.716 386.200, 85.456 370 C 82.896 362.115, 83.103 349.344, 85.924 341.113 C 95.291 313.788, 124.442 300.143, 151.250 310.536 C 152.733 311.111, 153 310.620, 153 307.317 C 153 305.174, 153.683 300.738, 154.518 297.460 C 162.049 267.889, 192.944 249.856, 221.402 258.421 C 225.029 259.512, 225.970 259.484, 227.590 258.236 C 231.096 255.535, 242.222 250.863, 249.274 249.129 L 256.247 247.415 251.873 243.248 C 242.466 234.284, 231.675 228.314, 219.832 225.522 C 211.890 223.650, 195.441 223.697, 187.507 225.615 M 338.485 390.250 C 338.237 390.938, 337.336 393.525, 336.483 396 L 334.933 400.500 339.009 396.443 C 341.829 393.636, 342.885 391.864, 342.436 390.693 C 341.678 388.718, 339.142 388.434, 338.485 390.250" stroke="none" fill="#c583ed" fill-rule="evenodd"/><path d="M 103.837 196.073 C 90.982 202.690, 69.732 204.208, 54.004 199.630 C 49.332 198.270, 45.351 197.316, 45.158 197.509 C 44.965 197.702, 45.937 200.704, 47.319 204.180 C 51.186 213.911, 52.338 221.711, 51.764 234.289 C 51.390 242.498, 50.597 247.441, 48.803 252.750 C 47.455 256.738, 46.421 260, 46.504 260 C 46.587 260, 49.348 258.906, 52.639 257.569 C 68.006 251.324, 87.055 250.491, 102.105 255.405 C 106.172 256.733, 109.619 257.704, 109.764 257.562 C 109.910 257.421, 108.906 254.853, 107.534 251.856 C 101.261 238.154, 100.321 216.833, 105.333 201.911 C 106.702 197.835, 107.749 194.430, 107.661 194.344 C 107.572 194.258, 105.852 195.036, 103.837 196.073 M 183.640 208.076 C 161.800 213.442, 142.192 228.383, 131.128 248.090 C 127.671 254.248, 123.610 265.428, 122.548 271.714 L 121.865 275.759 118.182 274.903 C 111.177 273.276, 93.855 273.864, 85.410 276.016 C 62.821 281.773, 44.780 296.619, 34.867 317.608 C 29.615 328.727, 27.699 337.362, 27.682 350 C 27.665 362.438, 29.583 370.999, 34.963 382.500 C 42.435 398.472, 54.262 410.659, 69.228 417.808 C 75.779 420.937, 76.867 421.805, 76.372 423.500 C 71.919 438.729, 71.748 439.795, 71.722 452.500 C 71.691 467.613, 73.687 476.700, 79.655 488.614 C 90.307 509.878, 108.262 524.738, 131.411 531.446 C 138.735 533.569, 142.274 533.997, 152.362 533.980 C 172.533 533.947, 189.926 528.237, 203.647 517.144 L 209.793 512.175 215.317 516.837 C 235.310 533.712, 262.159 539.908, 287.622 533.523 C 317.079 526.137, 338.724 505.006, 347.186 475.377 C 348.999 469.027, 349.435 464.979, 349.435 454.500 C 349.435 440.442, 347.627 431.637, 342.293 419.729 C 340.871 416.555, 339.886 413.837, 340.104 413.689 C 340.322 413.540, 342.134 412.217, 344.132 410.749 L 347.764 408.078 351.360 413.903 C 356.439 422.132, 366.129 430.835, 375.043 435.172 C 386.116 440.561, 390.035 441.395, 404.500 441.441 C 419.238 441.488, 427.888 439.576, 440.659 433.448 L 447.818 430.013 452.976 433.484 C 466.659 442.692, 490.521 443.407, 506.808 435.098 L 510.778 433.072 516.139 435.921 C 523.936 440.064, 530.789 441.366, 541.457 440.730 C 551.259 440.145, 563.283 436.744, 570.580 432.492 L 574.660 430.115 584.337 434.968 C 596.122 440.879, 604.293 442.492, 618.492 441.713 C 630.255 441.068, 641.072 437.877, 651.186 432.068 L 657.871 428.228 661.569 430.741 C 668.379 435.368, 679.407 439.785, 687.298 441.045 C 696.391 442.497, 709.487 441.837, 719 439.447 C 727.870 437.219, 742.147 430.209, 750 424.226 C 771.740 407.661, 779.307 389.498, 771.817 371.858 C 770.172 367.981, 770.023 366.579, 770.918 363.358 C 771.507 361.236, 771.991 356.935, 771.994 353.799 C 772.011 336.370, 763.779 322.391, 747.807 312.729 C 737.775 306.660, 732.624 305.486, 716.500 305.593 C 704.063 305.675, 701.551 305.995, 694 308.457 C 689.325 309.981, 684.221 311.884, 682.657 312.687 C 681.093 313.490, 679.659 313.992, 679.470 313.803 C 679.280 313.613, 681.319 309.652, 684 305 C 686.681 300.348, 688.732 296.399, 688.557 296.224 C 688.383 296.049, 680.297 298.828, 670.588 302.398 C 653.235 308.779, 652.869 308.865, 648.936 307.477 C 637.348 303.389, 618.086 303.592, 605.185 307.938 C 598.097 310.326, 596.607 310.478, 597.254 308.750 C 597.512 308.063, 597.350 304.441, 596.894 300.702 C 594.309 279.487, 573.658 264.272, 550.197 266.297 C 546.514 266.615, 541.527 267.580, 539.115 268.441 L 534.731 270.006 530.480 266.088 C 522.552 258.781, 514.720 255.877, 503 255.900 C 492.576 255.920, 484.987 257.803, 474.355 263.006 C 465.799 267.194, 459.959 272.072, 439.750 291.912 L 429 302.466 429 297.943 C 429 278.246, 414.403 260.148, 392.335 252.485 C 372.541 245.612, 349.874 247.479, 329.568 257.654 L 322.635 261.128 316.068 258.122 C 304.477 252.816, 284.097 247, 277.096 247 C 275.792 247, 273.838 245.088, 271.422 241.449 C 260.728 225.337, 240.251 211.493, 221.116 207.437 C 211.516 205.402, 193.256 205.713, 183.640 208.076 M 85.620 215.640 C 83.479 216.800, 80.785 217.089, 75.120 216.766 C 70.929 216.527, 66.746 215.996, 65.824 215.587 C 64.279 214.901, 64.260 215.212, 65.574 219.580 C 67.239 225.111, 67.401 231.114, 66.017 235.940 C 65.477 237.825, 65.140 239.473, 65.268 239.602 C 65.397 239.731, 67.977 239.182, 71.001 238.384 C 76.656 236.890, 84.696 237.280, 88.396 239.229 C 90.070 240.110, 90.209 239.950, 89.578 237.863 C 86.738 228.463, 86.563 220.553, 89.093 215.827 C 90.273 213.621, 89.432 213.575, 85.620 215.640 M 190.500 224.416 C 165.543 230.196, 146.364 246.998, 138.320 270.130 C 136.872 274.295, 135.552 280.774, 135.248 285.215 C 134.954 289.497, 134.441 292.994, 134.107 292.987 C 133.773 292.980, 130.645 292.079, 127.155 290.985 C 100.823 282.731, 71.704 293.213, 56.082 316.570 C 48.701 327.605, 45.692 337.622, 45.588 351.500 C 45.497 363.670, 47.373 371.234, 53.203 382.210 C 60.873 396.649, 78.469 410.200, 93.803 413.476 C 95.620 413.865, 96.947 414.479, 96.752 414.841 C 90.166 427.119, 87.630 436.872, 87.608 450 C 87.580 466.460, 92.182 479.860, 102.114 492.244 C 115.707 509.190, 134.543 518.194, 156.500 518.241 C 173.898 518.278, 189.604 511.948, 202.652 499.639 L 210.406 492.324 215.798 498.149 C 227.825 511.139, 244.524 518.859, 262.450 519.717 C 275.642 520.348, 284.725 518.416, 296.957 512.377 C 304.564 508.621, 307.889 506.216, 313.957 500.078 C 326.161 487.735, 332.076 475.603, 334.146 458.670 C 335.410 448.335, 333.992 437.199, 330.105 426.940 C 326.319 416.948, 326.208 416.927, 320.047 425.031 C 307.932 440.967, 289.589 454.461, 273 459.643 C 258.202 464.264, 235.950 465.543, 222.134 462.566 C 184.029 454.355, 161.008 420.243, 168.413 382.965 C 171.775 366.042, 179.600 353.238, 194.795 339.798 L 200.089 335.114 198.337 329.307 C 195.505 319.923, 195.979 304.529, 199.409 294.500 C 204.206 280.476, 211.303 270.764, 223.226 261.904 C 231.054 256.088, 243.023 250.683, 251.636 249.074 C 254.087 248.616, 256.316 248.017, 256.590 247.744 C 257.482 246.851, 245.346 236.573, 238.845 232.714 C 225.150 224.587, 204.825 221.098, 190.500 224.416 M 255.105 275.523 C 242.505 279.051, 231.905 287.386, 226.781 297.794 C 223.805 303.838, 223.501 305.297, 223.507 313.479 C 223.516 324.237, 225.316 328.467, 232.621 334.898 C 245.749 346.453, 268.684 343.544, 282.893 328.520 C 288.945 322.120, 289.392 319.100, 284.500 317.653 C 279.846 316.277, 278.528 315.427, 278.161 313.564 C 276.938 307.339, 282.995 303, 292.909 303 C 296.502 303, 302.029 303.989, 306.730 305.474 L 314.563 307.949 309.031 319.429 L 303.500 330.909 298.718 330.955 C 286.990 331.066, 277.085 340.346, 277.022 351.281 C 276.992 356.398, 279.086 357.020, 285.052 353.666 C 290.055 350.854, 295.007 350.148, 294.990 352.250 C 294.967 355.211, 289.741 364.362, 285.459 368.940 C 279.547 375.260, 274.216 377.401, 265.886 376.798 C 260.472 376.407, 259.348 375.954, 256.851 373.160 C 253.037 368.891, 253.103 364.697, 257.078 358.696 C 258.771 356.140, 260.004 353.262, 259.819 352.300 C 258.991 347.999, 248.464 346.771, 235.665 349.483 C 216.355 353.574, 200.890 366.675, 195.873 383.192 C 192.947 392.824, 193.503 405.098, 197.233 413.218 C 205.784 431.831, 227.479 441.071, 252.935 436.941 C 268.633 434.394, 281.445 427.527, 292.795 415.579 C 304.773 402.969, 311.638 388.838, 316.480 366.824 L 318.168 359.148 321.834 360.428 C 334.536 364.863, 343.939 361.921, 349.044 351.914 C 353.114 343.936, 350.496 328.550, 344.613 325.870 C 341.301 324.360, 339.405 325.237, 338.561 328.669 C 337.226 334.095, 335.277 336, 331.059 336 C 324.565 336, 323.931 335.448, 325.458 331.118 C 326.181 329.070, 328.203 324.559, 329.953 321.093 C 332.665 315.720, 333.455 314.871, 335.317 315.324 C 366.401 322.890, 380.406 322.803, 392.232 314.970 C 397.402 311.545, 402.016 303.774, 401.978 298.554 C 401.887 285.960, 386.958 275.742, 368.546 275.670 C 354.640 275.616, 344.140 279.165, 332.831 287.740 L 326.163 292.796 314.831 287.308 C 308.599 284.289, 298.775 280.212, 293 278.248 C 283.967 275.175, 280.963 274.630, 271.500 274.344 C 263.833 274.113, 258.865 274.470, 255.105 275.523 M 498 283.024 C 492.186 284.035, 485.613 286.960, 480.150 290.967 L 475.800 294.158 477.900 296.393 C 479.127 297.699, 480 299.954, 480 301.817 C 480 303.570, 475.470 325.366, 469.934 350.252 C 458.822 400.199, 458.708 401.320, 464.114 407.477 C 473.372 418.021, 494.565 415.211, 508.646 401.573 C 517.112 393.373, 515.681 387.847, 505.840 390.732 C 501.434 392.023, 500.658 392.006, 498.458 390.564 C 496.840 389.504, 496 388.020, 496 386.222 C 496 384.720, 500.275 363.990, 505.500 340.157 C 510.725 316.324, 515 295.029, 515 292.835 C 515 289.760, 514.331 288.177, 512.077 285.923 C 510.469 284.315, 508.256 283, 507.159 283 C 506.061 283, 504.564 282.829, 503.832 282.621 C 503.099 282.412, 500.475 282.593, 498 283.024 M 546.885 294.380 C 535.618 298.406, 530.085 308.548, 534 317.999 C 536.094 323.056, 540.957 325.285, 548.916 324.835 C 556.853 324.386, 563.927 320.715, 567.731 315.071 C 570.440 311.052, 570.750 304.350, 568.434 299.872 C 565.446 294.095, 555.077 291.452, 546.885 294.380 M 352.373 296.407 C 349.552 297.720, 346.980 299.224, 346.655 299.749 C 345.885 300.996, 352.658 303, 357.644 303 C 364.864 303, 369.100 297.129, 363.435 294.975 C 359.681 293.548, 358.063 293.757, 352.373 296.407 M 618 332.502 C 602.377 336.022, 588.517 346.985, 581.407 361.446 C 577.650 369.086, 577.500 369.778, 577.500 379.446 C 577.500 387.913, 577.863 390.236, 579.797 394.162 C 589.689 414.242, 613.386 420.721, 635.763 409.463 C 648.516 403.047, 660 391.567, 660 385.234 C 660 382.582, 657.457 380, 654.845 380 C 653.739 380, 649.462 381.350, 645.341 383 C 632.158 388.279, 622.662 386.869, 616.639 378.739 C 614.171 375.408, 613.215 364.908, 614.912 359.766 C 616.210 355.833, 621.013 350.562, 625.335 348.327 C 628.126 346.883, 628.248 346.901, 627.515 348.649 C 627.088 349.667, 626.517 352.860, 626.246 355.744 C 625.771 360.795, 625.901 361.136, 629.759 364.994 C 633.524 368.760, 634.117 369, 639.632 368.996 C 646.444 368.992, 650.971 366.741, 653.920 361.891 C 658.236 354.794, 657.298 346.550, 651.438 340.063 C 644.698 332.602, 631.150 329.539, 618 332.502 M 410.601 333.594 C 391.890 338.121, 375.039 353.594, 370.482 370.430 C 365.652 388.272, 372.782 404.326, 388.880 411.859 C 393.783 414.154, 395.776 414.488, 404.500 414.476 C 414.945 414.461, 420.776 413.087, 430.015 408.464 C 436.798 405.070, 446.874 397.156, 450.121 392.674 C 454.450 386.698, 453.751 380, 448.798 380 C 447.807 380, 442.069 382.565, 436.046 385.700 C 426.730 390.548, 424.124 391.461, 418.585 391.814 C 412.416 392.207, 411.915 392.069, 409.037 389.191 C 404.653 384.807, 405.056 383.240, 410.750 382.530 C 424.567 380.806, 438.522 374.622, 444.869 367.412 C 453.024 358.147, 452.856 347.415, 444.429 339.299 C 437.178 332.316, 424.629 330.200, 410.601 333.594 M 541.487 333.745 C 536.658 335.466, 529.675 339.223, 525.500 342.344 C 523.510 343.831, 523.512 343.851, 525.750 346.234 C 526.987 347.551, 528 349.761, 528 351.144 C 528 352.527, 525.951 363.277, 523.446 375.032 C 518.364 398.890, 518.335 402.034, 523.148 407.516 C 527.391 412.348, 533.468 414.397, 541.619 413.743 C 557.490 412.469, 577.951 396.523, 571.716 390.287 C 570.452 389.023, 569.587 388.948, 566.937 389.872 C 562.716 391.344, 557.710 391.310, 556.200 389.800 C 554.198 387.798, 554.814 381.834, 559.047 362.238 C 561.480 350.973, 562.870 342.268, 562.532 340.410 C 561.189 333.034, 551.811 330.064, 541.487 333.745 M 704.645 333.584 C 690.294 337.058, 674.447 349.228, 668.226 361.552 C 657.829 382.150, 664.263 403.380, 683.580 412.211 C 690.625 415.432, 705.710 415.419, 715.147 412.184 C 730.976 406.758, 748 392.513, 748 384.695 C 748 382.967, 744.823 380.010, 742.921 379.969 C 742.140 379.952, 736.455 382.517, 730.290 385.669 C 720.894 390.472, 718.049 391.466, 712.718 391.805 C 707.121 392.162, 706.044 391.927, 703.759 389.855 C 702.330 388.560, 700.887 386.541, 700.551 385.368 C 700.004 383.458, 700.439 383.168, 704.720 382.587 C 728.617 379.344, 744.956 367.532, 744.956 353.500 C 744.956 344.684, 738.112 336.318, 728.568 333.471 C 722.486 331.657, 712.410 331.704, 704.645 333.584 M 414.567 353.187 C 412.620 355.009, 410.323 358.228, 409.462 360.341 L 407.897 364.181 411.199 363.489 C 421.091 361.415, 426.271 356.802, 423.540 352.500 C 421.506 349.295, 418.480 349.526, 414.567 353.187 M 707.978 353.902 C 704.710 357.338, 702.198 362.532, 703.281 363.615 C 704.227 364.561, 714.486 360.605, 716.620 358.471 C 719.393 355.698, 719.619 353.762, 717.429 351.571 C 714.877 349.020, 711.931 349.747, 707.978 353.902 M 336.397 395 C 334.125 401.485, 334.265 401.526, 340.250 396.113 C 343.705 392.988, 343.985 389, 340.750 389 C 338.899 389, 338.125 390.067, 336.397 395 M 426 446.214 C 409.579 453.360, 387.101 453.900, 370.880 447.540 L 367.261 446.121 370.041 453.310 C 374.178 464.009, 375.317 471.438, 374.780 484.232 C 374.426 492.671, 373.686 497.320, 371.830 502.750 C 369.476 509.640, 369.410 511.133, 371.550 509.096 C 372.072 508.599, 375.875 507.009, 380 505.563 C 393.739 500.748, 413.536 500.687, 426.573 505.419 C 432.164 507.448, 433.028 507.557, 432.398 506.151 C 431.992 505.243, 430.284 500.675, 428.604 496 C 425.740 488.028, 425.552 486.630, 425.581 473.500 C 425.609 461.051, 425.901 458.669, 428.217 452 C 429.650 447.875, 430.749 444.445, 430.661 444.378 C 430.572 444.311, 428.475 445.137, 426 446.214 M 408.018 465.740 C 404.446 467.233, 392.326 467.122, 388.778 465.564 C 387.160 464.853, 387.152 465.091, 388.657 469.506 C 390.267 474.232, 390.147 484.162, 388.429 488.424 C 387.774 490.047, 387.953 490.219, 389.576 489.525 C 394.694 487.339, 401.007 486.667, 406.672 487.708 C 409.877 488.297, 412.573 488.716, 412.662 488.639 C 412.751 488.563, 412.133 485.800, 411.288 482.500 C 410.045 477.649, 409.962 475.362, 410.851 470.558 C 411.455 467.290, 411.849 464.542, 411.725 464.451 C 411.601 464.359, 409.933 464.940, 408.018 465.740" stroke="none" fill="#ffffff" fill-rule="evenodd"/><path d="M 195.276 257.449 C 180.631 260.778, 165.692 272.236, 159.256 285.075 C 155.590 292.389, 153 301.598, 153 307.317 C 153 310.620, 152.733 311.111, 151.250 310.536 C 124.442 300.143, 95.291 313.788, 85.924 341.113 C 83.103 349.344, 82.896 362.115, 85.456 370 C 90.716 386.200, 103.923 399.441, 118.522 403.150 C 121.260 403.846, 123.648 404.508, 123.830 404.621 C 124.011 404.734, 123.455 405.902, 122.594 407.217 C 119.844 411.413, 116.952 421.281, 116.355 428.500 C 114.100 455.798, 133.516 480.276, 161.337 485.209 C 176.061 487.820, 195.035 481.654, 206.256 470.611 L 211.757 465.197 217.629 471.157 C 224.760 478.397, 236.433 484.551, 246 486.115 C 274.752 490.816, 301.730 471.908, 307.343 443.121 L 308.001 439.743 304.751 442.410 C 298.601 447.457, 288.055 454.059, 281.283 457.101 C 268.899 462.666, 259.421 464.419, 241.500 464.462 C 222.590 464.507, 217.186 463.358, 203.046 456.288 C 177.515 443.522, 163.455 416.834, 167.058 387.975 C 169.278 370.182, 174.947 359.121, 189.321 344.533 L 199.142 334.566 197.530 328.823 C 195.475 321.497, 195.428 307.278, 197.431 298.641 C 200.398 285.848, 210.684 269.942, 220.591 262.827 L 225.216 259.506 220.914 258.260 C 213.965 256.248, 202.197 255.876, 195.276 257.449" stroke="none" fill="#652d95" fill-rule="evenodd"/></svg>